<?xml version="1.0" standalone="no"?>
<!DOCTYPE svg PUBLIC "-//W3C//DTD SVG 20010904//EN"
 "http://www.w3.org/TR/2001/REC-SVG-20010904/DTD/svg10.dtd">
<svg version="1.0" xmlns="http://www.w3.org/2000/svg"
 width="320.000000pt" height="320.000000pt" viewBox="0 0 320.000000 320.000000"
 preserveAspectRatio="xMidYMid meet">

<g transform="translate(0.000000,320.000000) scale(0.100000,-0.100000)"
fill="#000000" stroke="none">
<path d="M1366 2914 c-549 -99 -985 -540 -1082 -1094 -13 -74 -15 -132 -11
-265 6 -180 20 -258 73 -405 163 -453 564 -788 1039 -866 134 -22 394 -14 510
15 470 117 820 437 970 885 52 154 69 280 62 466 -10 292 -54 387 -156 344
-48 -20 -55 -52 -34 -148 27 -123 25 -391 -5 -508 -78 -313 -260 -565 -526
-729 -98 -60 -200 -103 -325 -137 -87 -23 -113 -26 -281 -26 -168 0 -194 3
-281 26 -434 117 -742 430 -852 866 -31 126 -31 398 0 524 79 313 261 565 527
729 173 106 348 158 561 166 269 10 515 -63 720 -213 l64 -47 -61 -74 c-33
-41 -59 -76 -57 -77 6 -5 470 -59 473 -55 4 4 -134 451 -141 459 -5 5 -19 -10
-78 -82 l-30 -37 -72 53 c-148 110 -365 200 -553 231 -118 19 -347 18 -454 -1z"/>
<path d="M1468 2010 c-93 -50 -129 -136 -136 -332 -9 -278 57 -402 223 -416
67 -5 118 11 165 54 72 65 107 205 97 384 -14 228 -91 331 -248 330 -43 -1
-76 -7 -101 -20z m164 -130 c39 -53 48 -338 14 -437 -26 -76 -100 -83 -140
-13 -18 30 -21 56 -24 181 -6 227 19 304 95 297 24 -2 42 -11 55 -28z"/>
</g>
</svg>
