<?xml version="1.0" encoding="UTF-8"?>
<svg version="1.1" xmlns="http://www.w3.org/2000/svg" width="512" height="512">
<path d="M0 0 C0.99087616 -0.0098568 0.99087616 -0.0098568 2.00177002 -0.01991272 C4.18713503 -0.0396151 6.3724313 -0.05130344 8.55786133 -0.0612793 C9.30637171 -0.06535482 10.05488209 -0.06943035 10.8260746 -0.07362938 C14.79045967 -0.09448037 18.75481026 -0.10878441 22.71923828 -0.11816406 C26.80018263 -0.12920678 30.88057846 -0.16358409 34.96132946 -0.20333576 C38.11077335 -0.22957317 41.26008817 -0.23786232 44.40963173 -0.24144554 C45.91303511 -0.24629573 47.41643333 -0.25786479 48.91972923 -0.27648354 C65.50311687 -0.469053 65.50311687 -0.469053 71.95671082 5.5891571 C75.95181772 10.03505833 77.69999188 14.31626893 77.70966148 20.23646259 C77.71611038 21.23773538 77.72255927 22.23900817 77.72920358 23.27062255 C77.72455778 24.90980762 77.72455778 24.90980762 77.71981812 26.58210754 C77.72434923 27.74863112 77.72888034 28.91515469 77.73354876 30.11702746 C77.74401874 33.35117865 77.74551864 36.58519 77.74316001 39.81935275 C77.74275177 43.3089009 77.75379166 46.79841591 77.76327515 50.28794861 C77.77988473 57.12330963 77.78538468 63.95863617 77.7864999 70.79401568 C77.78745042 76.3506601 77.79156088 81.90729313 77.79790115 87.46393394 C77.81551361 103.2204068 77.82474004 118.97685241 77.82324021 134.73333517 C77.82316029 135.58268711 77.82308038 136.43203904 77.82299805 137.30712891 C77.82291629 138.15751874 77.82283452 139.00790857 77.82275029 139.8840678 C77.82193743 153.66502678 77.84107495 167.44587645 77.86927478 181.22680382 C77.89800623 195.37928384 77.91181493 209.53171056 77.91008723 223.68422049 C77.90942341 231.62884524 77.91491222 239.5733554 77.93644333 247.51795387 C77.95465861 254.28239252 77.9589997 261.04666465 77.94542448 267.81111721 C77.93889643 271.26128863 77.93877124 274.7111406 77.95613098 278.16128159 C77.97153904 281.90478892 77.96230317 285.64745652 77.9468689 289.39094543 C77.95715602 290.47704332 77.96744315 291.5631412 77.97804201 292.68215114 C77.91423505 299.6826089 76.93981542 305.42283441 72.04050577 310.69688064 C66.9084805 315.25538661 62.41441134 316.42439131 55.67773438 316.4675293 C55.01685822 316.47424652 54.35598206 316.48096375 53.67507935 316.48788452 C51.5005125 316.5068082 49.32625529 316.51078599 47.15161133 316.51293945 C45.63092424 316.51937199 44.11023837 316.52610069 42.58955383 316.53311157 C39.40456272 316.54507074 36.21967994 316.54879387 33.03466797 316.54760742 C28.96943351 316.54740446 24.90489995 316.5746879 20.83983135 316.60915184 C17.69894776 316.63147955 14.55823118 316.63544316 11.41727638 316.63438797 C9.91946819 316.63673582 8.42165482 316.64551308 6.9239254 316.6610527 C-9.60397057 316.81646514 -9.60397057 316.81646514 -16.05220032 310.76498413 C-20.04671311 306.31845283 -21.79520635 302.03796299 -21.80487633 296.11754131 C-21.81132522 295.11626853 -21.81777411 294.11499574 -21.82441843 293.08338135 C-21.82132122 291.99059131 -21.81822402 290.89780126 -21.81503296 289.77189636 C-21.81956407 288.60537279 -21.82409518 287.43884922 -21.8287636 286.23697644 C-21.83923358 283.00282526 -21.84073348 279.76881391 -21.83837485 276.53465116 C-21.83796662 273.04510301 -21.84900651 269.555588 -21.85848999 266.0660553 C-21.87509957 259.23069427 -21.88059952 252.39536774 -21.88171475 245.55998822 C-21.88266526 240.00334381 -21.88677572 234.44671077 -21.893116 228.89006996 C-21.91072846 213.13359711 -21.91995489 197.3771515 -21.91845505 181.62066873 C-21.91837514 180.7713168 -21.91829522 179.92196487 -21.91821289 179.046875 C-21.91813113 178.19648517 -21.91804937 177.34609533 -21.91796513 176.46993611 C-21.91715227 162.68897713 -21.93628979 148.90812746 -21.96448962 135.12720009 C-21.99322108 120.97472006 -22.00702977 106.82229334 -22.00530207 92.66978341 C-22.00463825 84.72515867 -22.01012706 76.7806485 -22.03165817 68.83605003 C-22.04987345 62.07161138 -22.05421455 55.30733926 -22.04063933 48.5428867 C-22.03411127 45.09271528 -22.03398608 41.64286331 -22.05134583 38.19272232 C-22.06675388 34.44921499 -22.05751801 30.70654739 -22.04208374 26.96305847 C-22.05237087 25.87696059 -22.06265799 24.79086271 -22.07325685 23.67185277 C-22.00578621 16.26944111 -20.9244034 10.59268617 -15.51245117 5.1184082 C-14.84342773 4.66336914 -14.1744043 4.20833008 -13.48510742 3.73950195 C-12.81350586 3.26641602 -12.1419043 2.79333008 -11.44995117 2.3059082 C-7.62299778 0.03488247 -4.35865059 0.03590624 0 0 Z " fill="#FE0100" transform="translate(316.547607421875,97.822998046875)"/>
<path d="M0 0 C0.66087616 -0.00671722 1.32175232 -0.01343445 2.00265503 -0.02035522 C4.17722188 -0.0392789 6.35147908 -0.04325669 8.52612305 -0.04541016 C10.04681014 -0.05184269 11.56749601 -0.05857139 13.08818054 -0.06558228 C16.27317166 -0.07754144 19.45805443 -0.08126458 22.64306641 -0.08007812 C26.70830086 -0.07987517 30.77283442 -0.1071586 34.83790302 -0.14162254 C37.97878661 -0.16395026 41.11950319 -0.16791386 44.26045799 -0.16685867 C45.75826619 -0.16920652 47.25607956 -0.17798379 48.75380898 -0.19352341 C65.28170494 -0.34893584 65.28170494 -0.34893584 71.72993469 5.70254517 C75.72444749 10.14907646 77.47294072 14.4295663 77.4826107 20.34998798 C77.48905959 21.35126077 77.49550849 22.35253356 77.5021528 23.38414794 C77.49750699 25.02333301 77.49750699 25.02333301 77.49276733 26.69563293 C77.49729845 27.86215651 77.50182956 29.02868008 77.50649798 30.23055285 C77.51696796 33.46470404 77.51846785 36.69871539 77.51610923 39.93287814 C77.51570099 43.42242629 77.52674088 46.9119413 77.53622437 50.401474 C77.55283394 57.23683503 77.5583339 64.07216156 77.55944912 70.90754107 C77.56039964 76.46418549 77.5645101 82.02081852 77.57085037 87.57745934 C77.58846283 103.33393219 77.59768926 119.0903778 77.59618942 134.84686057 C77.59610951 135.6962125 77.5960296 136.54556443 77.59594727 137.4206543 C77.5958655 138.27104413 77.59578374 139.12143396 77.5956995 139.99759319 C77.59488665 153.77855217 77.61402417 167.55940184 77.642224 181.34032921 C77.67095545 195.49280923 77.68476414 209.64523595 77.68303645 223.79774588 C77.68237262 231.74237063 77.68786144 239.68688079 77.70939255 247.63147926 C77.72760783 254.39591791 77.73194892 261.16019004 77.7183737 267.9246426 C77.71184564 271.37481402 77.71172046 274.82466599 77.7290802 278.27480698 C77.74448826 282.01831431 77.73525239 285.76098191 77.71981812 289.50447083 C77.73010524 290.59056871 77.74039237 291.67666659 77.75099123 292.79567653 C77.68352058 300.19808819 76.60213777 305.87484312 71.19018555 311.34912109 C70.52116211 311.80416016 69.85213867 312.25919922 69.1628418 312.72802734 C68.49124023 313.20111328 67.81963867 313.67419922 67.12768555 314.16162109 C63.30073215 316.43264682 60.03638496 316.43162305 55.67773438 316.4675293 C55.01715027 316.47410049 54.35656616 316.48067169 53.67596436 316.48744202 C51.49059935 316.5071444 49.30530308 316.51883274 47.11987305 316.52880859 C46.37136267 316.53288412 45.62285229 316.53695965 44.85165977 316.54115868 C40.8872747 316.56200967 36.92292411 316.5763137 32.95849609 316.58569336 C28.87755174 316.59673608 24.79715591 316.63111339 20.71640491 316.67086506 C17.56696102 316.69710247 14.4176462 316.70539162 11.26810265 316.70897484 C9.76469927 316.71382503 8.26130105 316.72539409 6.75800514 316.74401283 C-9.82538249 316.93658229 -9.82538249 316.93658229 -16.27897644 310.87837219 C-20.27408334 306.43247096 -22.0222575 302.15126037 -22.03192711 296.2310667 C-22.038376 295.22979392 -22.04482489 294.22852113 -22.05146921 293.19690675 C-22.048372 292.1041167 -22.0452748 291.01132665 -22.04208374 289.88542175 C-22.04661485 288.71889818 -22.05114597 287.55237461 -22.05581439 286.35050184 C-22.06628437 283.11635065 -22.06778426 279.8823393 -22.06542563 276.64817655 C-22.0650174 273.1586284 -22.07605729 269.66911339 -22.08554077 266.17958069 C-22.10215035 259.34421966 -22.1076503 252.50889313 -22.10876553 245.67351361 C-22.10971604 240.1168692 -22.1138265 234.56023617 -22.12016678 229.00359535 C-22.13777924 213.2471225 -22.14700567 197.49067689 -22.14550583 181.73419412 C-22.14542592 180.88484219 -22.14534601 180.03549026 -22.14526367 179.16040039 C-22.14518191 178.31001056 -22.14510015 177.45962072 -22.14501591 176.5834615 C-22.14420305 162.80250252 -22.16334057 149.02165285 -22.19154041 135.24072548 C-22.22027186 121.08824545 -22.23408055 106.93581873 -22.23235285 92.7833088 C-22.23168903 84.83868406 -22.23717784 76.89417389 -22.25870895 68.94957542 C-22.27692423 62.18513677 -22.28126533 55.42086465 -22.26769011 48.65641209 C-22.26116205 45.20624067 -22.26103686 41.7563887 -22.27839661 38.30624771 C-22.29380467 34.56274038 -22.28456879 30.82007278 -22.26913452 27.07658386 C-22.27942165 25.99048598 -22.28970877 24.9043881 -22.30030763 23.78537816 C-22.23650067 16.7849204 -21.26208104 11.04469488 -16.36277139 5.77064866 C-11.23074612 1.21214269 -6.73667696 0.04313798 0 0 Z " fill="#FD0100" transform="translate(139.774658203125,97.70947265625)"/>
</svg>
