<?xml version="1.0" encoding="UTF-8"?>
<svg version="1.1" xmlns="http://www.w3.org/2000/svg" width="512" height="512">
<path d="M0 0 C6.39576128 3.75949089 12.81745932 7.47284914 19.24609375 11.17578125 C20.32560303 11.79791504 21.4051123 12.42004883 22.51733398 13.06103516 C24.70774125 14.32325958 26.89825247 15.58530362 29.08886719 16.84716797 C34.51769317 19.97508273 39.94428656 23.10686573 45.37109375 26.23828125 C47.53774958 27.48830004 49.70441625 28.73830003 51.87109375 29.98828125 C90.87109375 52.48828125 129.87109375 74.98828125 168.87109375 97.48828125 C169.94375488 98.10711182 171.01641602 98.72594238 172.12158203 99.36352539 C174.28666446 100.61263643 176.45170357 101.86182254 178.61669922 103.11108398 C184.05725081 106.25030434 189.49856591 109.38818688 194.94140625 112.5234375 C205.39315574 118.54575454 215.83408923 124.58497462 226.24609375 130.67578125 C234.92371827 135.75103372 243.63722912 140.76072678 252.37109375 145.73828125 C262.12960051 151.30035338 271.86760112 156.89533714 281.55224609 162.58544922 C286.57866972 165.53776926 291.62171381 168.45088784 296.70703125 171.30078125 C316.28638792 182.3386964 335.36745552 194.6444172 341.91308594 217.64257812 C344.1417174 227.84011142 343.12420614 239.4977584 338.37109375 248.73828125 C337.93539063 249.58648437 337.4996875 250.4346875 337.05078125 251.30859375 C326.28876928 270.53907415 307.95751223 279.92015783 289.30615234 290.11767578 C285.47275933 292.23430054 281.69575146 294.43562801 277.93359375 296.67578125 C270.96401611 300.81249073 263.95606718 304.8795014 256.93359375 308.92578125 C255.82636963 309.56378662 254.71914551 310.20179199 253.57836914 310.85913086 C251.30772307 312.16717602 249.03697017 313.47503573 246.76611328 314.78271484 C241.299394 317.93160176 235.83531729 321.08506615 230.37109375 324.23828125 C223.84876936 328.0019349 217.32595612 331.76472748 210.80078125 335.5234375 C200.34903176 341.54575454 189.90809827 347.58497462 179.49609375 353.67578125 C170.22609598 359.09749303 160.91277623 364.4403304 151.5826416 369.75750732 C142.45826535 374.95873254 133.36976601 380.21856003 124.30419922 385.52172852 C113.7802475 391.67594867 103.21729238 397.76198121 92.65332031 403.84716797 C87.22449433 406.97508273 81.79790094 410.10686573 76.37109375 413.23828125 C74.20443792 414.48830004 72.03777125 415.73830003 69.87109375 416.98828125 C68.79859375 417.60703125 67.72609375 418.22578125 66.62109375 418.86328125 C54.70442708 425.73828125 42.78776042 432.61328125 30.87109375 439.48828125 C29.79794922 440.10743408 28.72480469 440.72658691 27.61914062 441.36450195 C25.45909282 442.61062094 23.29893708 443.85655286 21.13867188 445.10229492 C15.61982296 448.28512534 10.10306373 451.47149036 4.58984375 454.6640625 C-0.83485722 457.80432808 -6.2648831 460.93513911 -11.70068359 464.05615234 C-13.56951375 465.1297091 -15.4371529 466.20534363 -17.30322266 467.28369141 C-26.51371752 472.59640121 -35.47325 477.4445549 -45.62890625 480.73828125 C-46.33917969 480.9703125 -47.04945312 481.20234375 -47.78125 481.44140625 C-61.13531848 485.26465694 -76.3342832 484.44443928 -88.62890625 477.73828125 C-101.81831052 469.15722305 -108.7391201 456.52380659 -112.24572182 441.41981506 C-113.95876541 433.11072829 -114.04782429 425.01611615 -114.00985718 416.58374023 C-114.01332101 414.89046395 -114.01809042 413.19718993 -114.02403891 411.50392056 C-114.0364789 406.88787237 -114.03041067 402.27201198 -114.02108026 397.65596342 C-114.0142612 392.66338087 -114.02478509 387.67082944 -114.03302002 382.67825317 C-114.04632918 372.91236825 -114.04349219 363.14655266 -114.0347821 353.38066506 C-114.02799485 345.44060973 -114.02709333 337.50057376 -114.03035355 329.56051636 C-114.03081325 328.42855723 -114.03127294 327.2965981 -114.03174657 326.13033718 C-114.03270579 323.83046889 -114.03367843 321.5306006 -114.03466435 319.23073232 C-114.04320999 297.68706681 -114.03339707 276.14343966 -114.01726325 254.59978044 C-114.00386083 236.13193078 -114.00618915 217.6641377 -114.02001953 199.19628906 C-114.03608993 177.72739894 -114.04238609 156.2585424 -114.03318274 134.7896471 C-114.03222714 132.49844679 -114.03128402 130.20724647 -114.03035355 127.91604614 C-114.02989072 126.78886073 -114.02942789 125.66167532 -114.02895104 124.50033277 C-114.02636554 116.57385253 -114.03072267 108.64739367 -114.03779221 100.72091675 C-114.04622363 91.05541783 -114.04389257 81.38999197 -114.02794997 71.72450137 C-114.02008936 66.79718047 -114.01693784 61.86998117 -114.02689743 56.94266129 C-114.03589077 52.42490338 -114.03083568 47.90737886 -114.01496477 43.38964188 C-114.01163651 41.76263728 -114.01326654 40.13561261 -114.02059214 38.5086211 C-114.09937289 19.54465817 -110.74804186 1.28778258 -97.62890625 -13.26171875 C-66.70998933 -41.17788805 -29.37170823 -17.26667025 0 0 Z " fill="#4CD942" transform="translate(141.62890625,27.26171875)"/>
<path d="M0 0 C0.33 0 0.66 0 1 0 C1.51236078 12.93710964 0.97661151 22.70548566 -6 34 C-6.99 33.67 -7.98 33.34 -9 33 C-9.625 30.625 -9.625 30.625 -10 28 C-9.34 27.34 -8.68 26.68 -8 26 C-7.5978125 24.8553125 -7.5978125 24.8553125 -7.1875 23.6875 C-6 21 -6 21 -3.4765625 18.8515625 C-0.21372851 15.09467163 -0.22623887 12.5040328 -0.1875 7.6875 C-0.16236328 6.94693359 -0.13722656 6.20636719 -0.11132812 5.44335938 C-0.05281557 3.62947031 -0.02345651 1.81468097 0 0 Z M-11 30 C-10.67 30.66 -10.34 31.32 -10 32 C-10.66 31.67 -11.32 31.34 -12 31 C-11.67 30.67 -11.34 30.34 -11 30 Z " fill="#4BC846" transform="translate(483,247)"/>
<path d="M0 0 C2.97 0.495 2.97 0.495 6 1 C3.11861791 3.24107496 0.25320657 5.33168894 -3 7 C-3.99 6.67 -4.98 6.34 -6 6 C-5.34 6 -4.68 6 -4 6 C-3.67 4.68 -3.34 3.36 -3 2 C-2.01 2 -1.02 2 0 2 C0 1.34 0 0.68 0 0 Z " fill="#48C346" transform="translate(390,336)"/>
<path d="M0 0 C0.66 0 1.32 0 2 0 C2 0.66 2 1.32 2 2 C2.99 1.67 3.98 1.34 5 1 C3.60344703 4.49873271 2.28739516 5.70891831 -1.125 7.25 C-2.21167969 7.75273437 -2.21167969 7.75273437 -3.3203125 8.265625 C-4.15175781 8.62914062 -4.15175781 8.62914062 -5 9 C-4.67 7.35 -4.34 5.7 -4 4 C-2.68 4 -1.36 4 0 4 C0 2.68 0 1.36 0 0 Z " fill="#45C23E" transform="translate(180,456)"/>
<path d="M0 0 C0 0.33 0 0.66 0 1 C-7.51094816 1.8388516 -14.50824535 2.0773541 -22 1 C-22 0.67 -22 0.34 -22 0 C-14.48751716 -0.94450945 -7.51248284 -0.94450945 0 0 Z " fill="#49AD48" transform="translate(88,509)"/>
<path d="M0 0 C0.99 0.33 1.98 0.66 3 1 C3 1.66 3 2.32 3 3 C3.99 3.33 4.98 3.66 6 4 C1.25 7 1.25 7 -1 7 C-1 3 -1 3 0 0 Z " fill="#43C443" transform="translate(277,399)"/>
<path d="M0 0 C0.66 0 1.32 0 2 0 C2.33 1.65 2.66 3.3 3 5 C1.02 5.99 -0.96 6.98 -3 8 C-3.33 7.01 -3.66 6.02 -4 5 C-3.01 4.67 -2.02 4.34 -1 4 C-0.26676204 1.98491642 -0.26676204 1.98491642 0 0 Z " fill="#41BF3C" transform="translate(332,368)"/>
<path d="M0 0 C1.65 0 3.3 0 5 0 C5.33 0.66 5.66 1.32 6 2 C5.34 2 4.68 2 4 2 C3.67 2.99 3.34 3.98 3 5 C2.01 4.34 1.02 3.68 0 3 C0 2.01 0 1.02 0 0 Z " fill="#40C731" transform="translate(43,494)"/>
<path d="M0 0 C1.65 0 3.3 0 5 0 C4.01 0.99 3.02 1.98 2 3 C1.34 2.67 0.68 2.34 0 2 C0 1.34 0 0.68 0 0 Z M1 3 C1.99 3.99 2.98 4.98 4 6 C3.01 6.33 2.02 6.66 1 7 C1 5.68 1 4.36 1 3 Z " fill="#45C848" transform="translate(440,304)"/>
<path d="M0 0 C1.65 0 3.3 0 5 0 C5.33 0.66 5.66 1.32 6 2 C3.36 2.66 0.72 3.32 -2 4 C-2 3.34 -2 2.68 -2 2 C-1.34 2 -0.68 2 0 2 C0 1.34 0 0.68 0 0 Z " fill="#47BF38" transform="translate(96,504)"/>
<path d="M0 0 C0.99 0 1.98 0 3 0 C3.144375 0.78375 3.28875 1.5675 3.4375 2.375 C3.87798925 4.96421018 3.87798925 4.96421018 5 7 C3 6 1 5 -1 4 C-0.67 2.68 -0.34 1.36 0 0 Z " fill="#4ABD3F" transform="translate(47,496)"/>
<path d="M0 0 C1.32 0.33 2.64 0.66 4 1 C1.64722731 3.72426311 -0.62496331 4.8141763 -4 6 C-4 5.34 -4 4.68 -4 4 C-2.68 3.67 -1.36 3.34 0 3 C0 2.01 0 1.02 0 0 Z " fill="#3EC43A" transform="translate(114,496)"/>
<path d="M0 0 C0.99 0.33 1.98 0.66 3 1 C1.35 2.98 -0.3 4.96 -2 7 C-2.33 6.01 -2.66 5.02 -3 4 C-1.5625 1.8125 -1.5625 1.8125 0 0 Z " fill="#50BF4B" transform="translate(468,288)"/>
<path d="M0 0 C0.66 0 1.32 0 2 0 C2 0.66 2 1.32 2 2 C2.66 2 3.32 2 4 2 C3.34 3.32 2.68 4.64 2 6 C1.34 6 0.68 6 0 6 C0 4.02 0 2.04 0 0 Z " fill="#5FD955" transform="translate(46,12)"/>
<path d="M0 0 C0.66 0.33 1.32 0.66 2 1 C-2.39453125 5.00390625 -2.39453125 5.00390625 -4 6 C-4.99 5.67 -5.98 5.34 -7 5 C-4.69 3.35 -2.38 1.7 0 0 Z " fill="#5DDA53" transform="translate(55,6)"/>
</svg>
