<?xml version="1.0" standalone="no"?>
<!DOCTYPE svg PUBLIC "-//W3C//DTD SVG 20010904//EN"
 "http://www.w3.org/TR/2001/REC-SVG-20010904/DTD/svg10.dtd">
<svg version="1.0" xmlns="http://www.w3.org/2000/svg"
 width="512.000000pt" height="512.000000pt" viewBox="0 0 512.000000 512.000000"
 preserveAspectRatio="xMidYMid meet">

<g transform="translate(0.000000,512.000000) scale(0.100000,-0.100000)"
fill="#000000" stroke="none">
<path d="M2264 4674 c-216 -29 -452 -103 -658 -206 -550 -275 -960 -782 -1112
-1375 -46 -179 -64 -331 -64 -533 0 -350 69 -648 222 -954 275 -549 783 -960
1375 -1112 179 -46 331 -64 533 -64 350 0 648 69 954 222 628 314 1070 933
1161 1623 17 130 20 419 5 535 -19 145 -54 303 -75 334 -28 43 -81 68 -128 62
-53 -6 -86 -31 -109 -82 -19 -45 -19 -45 1 -137 77 -346 64 -680 -40 -996 -96
-292 -238 -522 -458 -742 -311 -312 -684 -490 -1123 -538 -847 -93 -1666 433
-1946 1250 -234 681 -54 1426 466 1931 570 553 1411 684 2118 330 110 -55 260
-149 327 -205 l27 -23 -96 -120 -97 -119 29 -7 c37 -9 735 -91 739 -86 6 6
-229 748 -236 746 -4 -2 -42 -46 -84 -98 -43 -52 -82 -94 -87 -92 -5 1 -38 24
-73 51 -271 208 -642 360 -993 406 -140 19 -439 18 -578 -1z"/>
<path d="M1080 2591 l0 -411 80 0 80 0 0 170 0 170 55 0 c30 0 66 -5 80 -12
27 -12 81 -81 184 -235 l62 -93 94 0 c52 0 95 3 95 7 0 24 -154 248 -205 299
l-62 61 50 13 c127 32 193 184 136 310 -25 56 -44 77 -94 104 -37 20 -57 21
-297 24 l-258 3 0 -410z m463 249 c32 -26 44 -79 27 -121 -21 -49 -53 -59
-200 -59 l-130 0 0 100 0 100 139 0 c124 0 141 -2 164 -20z"/>
<path d="M3905 2937 l-70 -42 -3 -57 c-3 -56 -3 -57 -35 -60 -32 -3 -32 -3
-35 -65 l-3 -63 34 0 35 0 4 -192 c4 -217 11 -243 72 -272 39 -18 128 -21 175
-5 33 12 36 22 25 91 -7 38 -7 38 -47 31 -63 -10 -67 3 -67 189 l0 158 55 0
55 0 0 65 0 65 -55 0 -55 0 0 100 c0 55 -3 100 -7 100 -5 0 -39 -20 -78 -43z"/>
<path d="M2060 2781 c-76 -23 -136 -78 -172 -156 -19 -42 -23 -67 -23 -150 0
-89 3 -106 28 -157 53 -107 141 -154 276 -146 94 5 150 33 198 96 48 63 44 78
-19 86 -29 4 -63 10 -75 13 -18 4 -25 -1 -32 -20 -23 -61 -115 -78 -170 -31
-25 21 -51 74 -51 107 0 4 87 7 194 7 107 0 197 4 200 9 11 17 -15 164 -36
208 -50 106 -201 169 -318 134z m152 -138 c22 -19 48 -72 48 -98 0 -13 -18
-15 -115 -15 l-115 0 0 25 c0 37 26 82 58 100 34 19 96 13 124 -12z"/>
<path d="M2642 2771 c-65 -22 -89 -44 -114 -100 -37 -81 -3 -167 82 -211 20
-10 75 -28 121 -40 46 -11 98 -25 116 -31 62 -20 51 -81 -19 -99 -73 -20 -149
6 -169 57 -9 25 -12 25 -66 19 -100 -12 -103 -13 -91 -49 18 -51 89 -114 149
-131 67 -20 181 -20 248 0 169 50 200 265 47 329 -19 8 -86 29 -148 45 -120
33 -138 42 -138 71 0 59 176 61 203 2 10 -23 14 -25 62 -18 76 9 95 16 95 31
0 23 -41 80 -74 102 -65 44 -211 55 -304 23z"/>
<path d="M3340 2781 c-76 -23 -136 -78 -172 -156 -19 -42 -23 -67 -23 -150 0
-89 3 -106 28 -157 53 -107 141 -154 276 -146 94 5 150 33 198 96 48 63 44 78
-19 86 -29 4 -63 10 -75 13 -18 4 -25 -1 -32 -20 -23 -61 -115 -78 -170 -31
-25 21 -51 74 -51 107 0 4 87 7 194 7 107 0 197 4 200 9 11 17 -15 164 -36
208 -50 106 -201 169 -318 134z m152 -138 c22 -19 48 -72 48 -98 0 -13 -18
-15 -115 -15 l-115 0 0 25 c0 37 26 82 58 100 34 19 96 13 124 -12z"/>
</g>
</svg>
